<svg xmlns="http://www.w3.org/2000/svg" xmlns:xlink="http://www.w3.org/1999/xlink" width="242.913" height="298.894" viewBox="0 0 242.913 298.894">
  <defs>
    <linearGradient id="linear-gradient" x1="0.5" x2="0.5" y2="1" gradientUnits="objectBoundingBox">
      <stop offset="0" stop-color="#654ea3"/>
      <stop offset="1" stop-color="#eaafc8"/>
    </linearGradient>
  </defs>
  <g id="expensee_logo" transform="translate(-77.15 -71)">
    <g id="Group_11" data-name="Group 11" transform="translate(81 71)">
      <g id="attach_money_black_24dp" transform="translate(50.694 47.715)">
        <path id="Path_72" data-name="Path 72" d="M0,0H87.051V87.051H0Z" fill="none"/>
        <path id="Path_73" data-name="Path 73" d="M25.724,31.654c-8.234-2.14-10.881-4.353-10.881-7.8,0-3.954,3.663-6.71,9.793-6.71,5.151,0,7.726,1.959,8.669,5.078a3.356,3.356,0,0,0,3.156,2.539h1.088a3.438,3.438,0,0,0,3.264-4.606c-1.523-4.28-5.078-7.835-10.736-9.213v-2.5a5.441,5.441,0,1,0-10.881,0v2.394C12.158,12.358,6.5,16.928,6.5,23.929c0,8.379,6.928,12.55,17.048,14.98,9.068,2.176,10.881,5.368,10.881,8.741,0,2.5-1.777,6.493-9.793,6.493-5.985,0-9.068-2.14-10.265-5.187a3.569,3.569,0,0,0-3.264-2.43H10.091a3.46,3.46,0,0,0-3.228,4.715c2.067,5.042,6.892,8.016,12.332,9.177v2.43a5.441,5.441,0,1,0,10.881,0V60.49c7.073-1.342,12.695-5.441,12.695-12.876,0-10.3-8.814-13.819-17.048-15.959Z" transform="translate(17.076 7.881)" fill="url(#linear-gradient)"/>
      </g>
      <g id="search_black_24dp" transform="translate(0 0)">
        <path id="Path_76" data-name="Path 76" d="M0,0H230.954V230.954H0Z" fill="none"/>
        <path id="Path_77" data-name="Path 77" d="M123.294,108.86h-7.6l-2.694-2.6A62.554,62.554,0,0,0,127.24,54.874C122.717,28.122,100.391,6.758,73.447,3.487a62.6,62.6,0,0,0-69.96,69.96c3.272,26.945,24.635,49.27,51.387,53.793A62.554,62.554,0,0,0,106.261,113l2.6,2.694v7.6l40.9,40.9A10.139,10.139,0,0,0,164.1,149.854Zm-57.739,0a43.3,43.3,0,1,1,43.3-43.3A43.246,43.246,0,0,1,65.556,108.86Z" transform="translate(25.864 25.864)" fill="url(#linear-gradient)"/>
      </g>
    </g>
    <path id="Path_247" data-name="Path 247" d="M-114.75-4.437V-15.963h17.9V-20.3h-17.9V-31.263h20.094V-35.7H-119.85V0h25.908V-4.437ZM-64.209,0-74.97-13.821l10.2-13.209h-5.355l-7.4,9.741-7.446-9.741h-5.457l10.149,13.209L-90.933,0h5.457l7.905-10.353L-69.768,0Zm19.686-27.285a11.512,11.512,0,0,0-9.639,4.539V-27.03h-4.692V9.894h4.9V-4.08A11.544,11.544,0,0,0-44.523.306c7.9,0,13.668-5.508,13.668-13.821C-30.855-21.777-36.618-27.285-44.523-27.285Zm-.408,23.307c-5.151,0-9.078-3.774-9.078-9.537,0-5.712,3.927-9.486,9.078-9.486,5.2,0,9.129,3.774,9.129,9.486C-35.8-7.752-39.729-3.978-44.931-3.978ZM.357-13.362c0-8.313-5.559-13.923-13.362-13.923s-13.566,5.763-13.566,13.77c0,8.058,5.814,13.821,14.535,13.821,4.488,0,8.211-1.53,10.659-4.386l-2.7-3.162a10.092,10.092,0,0,1-7.8,3.264c-5.355,0-9.18-3.162-9.792-7.905H.255C.306-12.342.357-12.954.357-13.362Zm-13.362-9.792A8.429,8.429,0,0,1-4.335-15.4h-17.34A8.426,8.426,0,0,1-13.005-23.154Zm34.578-4.131c-4.284,0-7.752,1.581-9.741,4.335v-4.08H7.14V0h4.9V-13.923c0-5.865,3.366-8.976,8.568-8.976,4.641,0,7.293,2.6,7.293,7.905V0h4.9V-15.555C32.793-23.511,28.152-27.285,21.573-27.285ZM49.623.306C56.814.306,61.3-2.805,61.3-7.7c0-10.506-17.136-5.3-17.136-11.679,0-2.142,2.091-3.723,6.375-3.723a14.116,14.116,0,0,1,7.8,2.142l2.091-3.876c-2.346-1.53-6.324-2.448-9.843-2.448-6.936,0-11.271,3.264-11.271,8.109,0,10.761,17.085,5.508,17.085,11.577,0,2.3-1.887,3.672-6.426,3.672a17.369,17.369,0,0,1-9.486-2.8l-2.04,3.876C40.7-1.071,45.135.306,49.623.306ZM91.851-13.362c0-8.313-5.559-13.923-13.362-13.923s-13.566,5.763-13.566,13.77C64.923-5.457,70.737.306,79.458.306c4.488,0,8.211-1.53,10.659-4.386l-2.7-3.162a10.092,10.092,0,0,1-7.8,3.264c-5.355,0-9.18-3.162-9.792-7.905h21.93C91.8-12.342,91.851-12.954,91.851-13.362ZM78.489-23.154a8.429,8.429,0,0,1,8.67,7.752H69.819A8.426,8.426,0,0,1,78.489-23.154Zm44.574,9.792c0-8.313-5.559-13.923-13.362-13.923s-13.566,5.763-13.566,13.77c0,8.058,5.814,13.821,14.535,13.821,4.488,0,8.211-1.53,10.659-4.386l-2.7-3.162a10.092,10.092,0,0,1-7.8,3.264c-5.355,0-9.18-3.162-9.792-7.905h21.93C123.012-12.342,123.063-12.954,123.063-13.362ZM109.7-23.154a8.429,8.429,0,0,1,8.67,7.752h-17.34A8.426,8.426,0,0,1,109.7-23.154Z" transform="translate(197 360)" fill="#885b85"/>
  </g>
</svg>
