<svg id="logo_googleg_48dp" xmlns="http://www.w3.org/2000/svg" width="23.602" height="23.602" viewBox="0 0 23.602 23.602">
  <path id="Shape" d="M20.329,9.778a13.568,13.568,0,0,0-.215-2.414H9v4.565h6.351A5.429,5.429,0,0,1,13,15.49v2.961H16.81a11.509,11.509,0,0,0,3.519-8.674Z" transform="translate(2.801 2.292)" fill="#4285f4" fill-rule="evenodd"/>
  <path id="Shape-2" data-name="Shape" d="M11.5,20.269a11.266,11.266,0,0,0,7.81-2.859L15.5,14.449A7.119,7.119,0,0,1,4.9,10.71H.957v3.058a11.8,11.8,0,0,0,10.546,6.5Z" transform="translate(0.298 3.333)" fill="#34a853" fill-rule="evenodd"/>
  <path id="Shape-3" data-name="Shape" d="M5.2,12.5a6.977,6.977,0,0,1,0-4.484V4.958H1.255a11.816,11.816,0,0,0,0,10.6L5.2,12.5Z" transform="translate(0 1.543)" fill="#fbbc05" fill-rule="evenodd"/>
  <path id="Shape-4" data-name="Shape" d="M11.5,4.694a6.375,6.375,0,0,1,4.511,1.765L19.4,3.074A11.341,11.341,0,0,0,11.5,0,11.8,11.8,0,0,0,.957,6.5L4.9,9.559a7.033,7.033,0,0,1,6.6-4.865Z" transform="translate(0.298)" fill="#ea4335" fill-rule="evenodd"/>
  <path id="Shape-5" data-name="Shape" d="M0,0H23.6V23.6H0Z" fill="none" fill-rule="evenodd"/>
</svg>
